<?xml version="1.0" standalone="no"?><!DOCTYPE svg PUBLIC "-//W3C//DTD SVG 1.1//EN" "http://www.w3.org/Graphics/SVG/1.1/DTD/svg11.dtd"><svg t="1617020365512" class="icon" viewBox="0 0 1109 1024" version="1.1" xmlns="http://www.w3.org/2000/svg" p-id="1300" xmlns:xlink="http://www.w3.org/1999/xlink" width="812.255859375" height="750"><defs><style type="text/css"></style></defs><path d="M632.661333 774.4c-65.194667 33.962667-101.12 33.621333-152.746666 8.96-51.2-24.576-479.573333-203.52-479.573334-203.52v129.706667c0 11.264 15.701333 23.04 44.714667 36.949333 58.538667 28.074667 383.658667 159.146667 434.773333 183.893333 51.2 24.576 87.466667 24.746667 152.746667-8.96 65.109333-34.048 370.346667-159.317333 429.312-190.293333 30.037333-15.616 43.264-27.904 43.264-38.826667v-128h-0.085333c-0.170667-0.170667-407.466667 175.957333-472.405334 210.090667z" fill="#449EFE" p-id="1301"></path><path d="M632.661333 592.213333c-65.194667 33.962667-101.12 33.536-152.746666 8.96-51.2-24.746667-479.573333-203.776-479.573334-203.776v129.706667c0 11.178667 15.701333 22.954667 44.714667 36.864 58.538667 28.16 383.658667 159.317333 434.773333 184.064 51.2 24.576 87.466667 24.746667 152.746667-8.96 65.109333-34.048 370.346667-159.317333 429.312-190.293333 30.037333-15.616 43.264-27.904 43.264-38.826667v-128h-0.085333c-0.170667 0-407.466667 176.128-472.405334 210.176z" fill="#449EFE" p-id="1302"></path><path d="M1105.322667 211.114667c0.512-11.178667-14.421333-21.162667-43.776-31.914667C1004.032 158.037333 700.501333 37.290667 642.304 16.042667c-58.282667-21.333333-81.92-20.309333-150.186667 4.010666S100.693333 171.349333 43.093333 193.877333c-29.013333 11.264-43.093333 21.930667-42.24 33.28V226.986667v127.658666S428.885333 535.04 480.426667 559.530667c51.2 24.661333 87.381333 24.746667 152.661333-8.96 65.024-34.218667 472.661333-213.333333 472.661333-213.333334l-0.426666-126.122666z m-143.018667 3.413333L794.453333 280.746667l-151.296-59.818667 167.594667-66.304 151.552 59.904z m-310.016 62.890667l-77.568 113.493333-178.517333-74.069333 256-39.424z m-134.485333-172.373334l-24.746667-45.738666 77.312 30.122666 72.618667-23.893333-19.712 47.104 74.24 27.904-95.829334 9.813333-21.504 51.797334-34.56-57.685334-110.506666-9.728 82.773333-29.781333z m-190.634667 64.170667c75.605333 0 136.874667 23.637333 136.874667 53.077333 0 29.184-61.269333 53.077333-136.874667 53.077334-75.605333 0-136.96-23.637333-136.96-53.077334 0.170667-29.013333 61.44-53.077333 136.96-53.077333z" fill="#449EFE" p-id="1303"></path></svg>